<?xml version="1.0" encoding="UTF-8"?>
<svg xmlns="http://www.w3.org/2000/svg" viewBox="130 134 140 137" role="img" aria-labelledby="title">
  <title>Optica symbol</title>
  <path fill="#231f20" d="M268.13,202.32c0,37.19-30.25,67.44-67.44,67.44-16.92,0-33.09-6.29-45.55-17.72-11.37-10.42-18.74-24.29-21.07-39.38h20.02c4.76,21.63,24,37.4,46.6,37.4,26.32,0,47.74-21.42,47.74-47.74s-21.42-47.74-47.74-47.74c-22.21,0-41.17,15.23-46.34,36.28h-20.11c2.51-14.66,9.8-28.1,20.89-38.27,12.46-11.42,28.64-17.72,45.55-17.72,37.19,0,67.44,30.25,67.44,67.44Z"/>
</svg>
